<svg xmlns="http://www.w3.org/2000/svg" width="30" height="30" viewBox="0 0 30 30">
  <defs>
    <style>
      .cls-1 {
        fill: #fff;
        fill-rule: evenodd;
      }
    </style>
  </defs>
  <path id="Forma_1" data-name="Forma 1" class="cls-1" d="M4.455,23.591A13.532,13.532,0,0,1,23.594,4.455a13.267,13.267,0,0,1,2.036,16.331,0.569,0.569,0,0,0,.078.678l3.057,3.056c1.374,1.374,1.7,3.3.483,4.514l-0.21.21c-1.219,1.219-3.14.892-4.515-.482L21.48,25.72a0.578,0.578,0,0,0-.693-0.093A13.27,13.27,0,0,1,4.455,23.591Zm16.64-2.5a10,10,0,1,0-14.141,0A10.009,10.009,0,0,0,21.095,21.093Zm-7.128-13.7a5.14,5.14,0,0,1,5.05,5.154c0,3.818-4.331,8.169-5.049,8.169s-5.05-4.325-5.05-8.169A5.14,5.14,0,0,1,13.967,7.391Zm0,8.233a3.029,3.029,0,1,0-3.03-3.029A3.03,3.03,0,0,0,13.967,15.624Z"/>
</svg>
