<svg xmlns="http://www.w3.org/2000/svg" width="19" height="15" viewBox="0 0 19 15">
  <defs>
    <style>
      .cls-1 {
        fill: #fff;
        fill-rule: evenodd;
      }
    </style>
  </defs>
  <path id="Forma_1" data-name="Forma 1" class="cls-1" d="M1.832,4.64Q2.192,4.894,4,6.15T6.778,8.082q0.106,0.074.45,0.323T7.8,8.808q0.228,0.154.551,0.344a3.207,3.207,0,0,0,.609.286,1.681,1.681,0,0,0,.53.1H9.511a1.682,1.682,0,0,0,.53-0.1,3.2,3.2,0,0,0,.609-0.286q0.323-.191.551-0.344t0.572-.4q0.344-.249.45-0.323L17.179,4.64a5.031,5.031,0,0,0,1.292-1.3,2.8,2.8,0,0,0,.519-1.6,1.623,1.623,0,0,0-.5-1.2A1.637,1.637,0,0,0,17.3.044H1.7A1.513,1.513,0,0,0,.449.594,2.138,2.138,0,0,0,.01,1.971,2.473,2.473,0,0,0,.592,3.417,5.254,5.254,0,0,0,1.832,4.64Zm16.1,1.133q-3.474,2.351-5.274,3.654-0.6.445-.98,0.694a6.047,6.047,0,0,1-1,.508,3.049,3.049,0,0,1-1.165.259H9.489a3.05,3.05,0,0,1-1.165-.259,6.063,6.063,0,0,1-1-.508q-0.376-.249-0.98-0.694Q4.914,8.379,1.08,5.774A5.612,5.612,0,0,1,.01,4.852v8.409a1.631,1.631,0,0,0,.5,1.2,1.631,1.631,0,0,0,1.2.5H17.3a1.7,1.7,0,0,0,1.694-1.695V4.852A5.843,5.843,0,0,1,17.931,5.774Z"/>
</svg>
