<svg xmlns="http://www.w3.org/2000/svg" width="26" height="22" viewBox="0 0 26 22">
  <defs>
    <style>
      .cls-1 {
        fill: #fff;
        fill-rule: evenodd;
      }
    </style>
  </defs>
  <path id="Forma_1" data-name="Forma 1" class="cls-1" d="M25.5,12.3L20.97,1.508A2.6,2.6,0,0,0,18.857.2h-2.95l0.547,5.853h3.888L13,12.143,5.654,6.053H9.542L10.089,0.2H7.14A2.593,2.593,0,0,0,5.027,1.508L0.494,12.3a5.287,5.287,0,0,0-.413,2.752L1.06,20.357A1.791,1.791,0,0,0,2.76,21.8H23.236a1.79,1.79,0,0,0,1.7-1.443l0.98-5.307A5.3,5.3,0,0,0,25.5,12.3Zm-1.963,3.78-0.373,2.164a1.759,1.759,0,0,1-1.662,1.51H4.492a1.76,1.76,0,0,1-1.663-1.51L2.456,16.077a1.274,1.274,0,0,1,1.257-1.51h18.57A1.274,1.274,0,0,1,23.541,16.077Z"/>
</svg>
