<svg xmlns="http://www.w3.org/2000/svg" width="28" height="28" viewBox="0 0 28 28">
  <defs>
    <style>
      .cls-1 {
        fill: #fff;
        fill-rule: evenodd;
      }
    </style>
  </defs>
  <path id="Forma_1" data-name="Forma 1" class="cls-1" d="M11.828,0.173A11.639,11.639,0,0,1,20.669,19.4l1.392,1.392,1.268-1.268,3.215,3.215a2.688,2.688,0,0,1,0,3.8h0a2.688,2.688,0,0,1-3.8,0l-3.215-3.215,1.268-1.268L19.4,20.669A11.649,11.649,0,1,1,11.828.173Zm0,19.724a8.069,8.069,0,1,0-8.069-8.069A8.078,8.078,0,0,0,11.828,19.9Z"/>
</svg>
