<svg xmlns="http://www.w3.org/2000/svg" width="26" height="28" viewBox="0 0 26 28">
  <defs>
    <style>
      .cls-1 {
        fill: #1873a7;
        fill-rule: evenodd;
      }
    </style>
  </defs>
  <path id="Forma_1" data-name="Forma 1" class="cls-1" d="M14.088,25.465A8.43,8.43,0,0,1,3.509,12.337L16.018,2.257A6.131,6.131,0,0,1,23.712,11.8l-10.126,8.16A3.832,3.832,0,0,1,8.777,14l8.935-7.2,1.443,1.79-8.935,7.2a1.533,1.533,0,0,0,1.923,2.387l10.127-8.16a3.832,3.832,0,0,0-4.809-5.967L4.951,14.127a6.131,6.131,0,0,0,7.694,9.548l11.318-9.12,1.442,1.79Z"/>
</svg>
