<svg xmlns="http://www.w3.org/2000/svg" width="27" height="24" viewBox="0 0 27 24">
  <defs>
    <style>
      .cls-1 {
        fill: #fff;
        fill-rule: evenodd;
      }
    </style>
  </defs>
  <path class="cls-1" d="M25.643,18.338L16.692,1.872a3.711,3.711,0,0,0-6.384,0L1.358,18.338a3.713,3.713,0,0,0,3.191,5.611h17.9A3.713,3.713,0,0,0,25.643,18.338ZM13.5,20.977a1.486,1.486,0,1,1,1.485-1.486A1.487,1.487,0,0,1,13.5,20.977Zm1.485-5.943a1.485,1.485,0,1,1-2.969,0V7.606a1.485,1.485,0,1,1,2.969,0v7.429Z"/>
</svg>
