<svg xmlns="http://www.w3.org/2000/svg" width="19" height="19" viewBox="0 0 19 19">
  <defs>
    <style>
      .cls-1 {
        fill: #fff;
        fill-rule: evenodd;
        opacity: 0.7;
      }
    </style>
  </defs>
  <path id="Forma_1" data-name="Forma 1" class="cls-1" d="M17.627,4.789a9.345,9.345,0,0,0-3.415-3.416A9.182,9.182,0,0,0,9.5.114,9.181,9.181,0,0,0,4.789,1.373,9.343,9.343,0,0,0,1.373,4.789,9.18,9.18,0,0,0,.114,9.5a9.183,9.183,0,0,0,1.259,4.711,9.346,9.346,0,0,0,3.416,3.416A9.183,9.183,0,0,0,9.5,18.886a9.183,9.183,0,0,0,4.711-1.259,9.345,9.345,0,0,0,3.416-3.416A9.183,9.183,0,0,0,18.886,9.5,9.182,9.182,0,0,0,17.627,4.789Zm-3.7,6.923a0.751,0.751,0,0,1,.232.55,0.765,0.765,0,0,1-.232.562l-1.1,1.1a0.765,0.765,0,0,1-.562.232,0.751,0.751,0,0,1-.55-0.232L9.5,11.712,7.288,13.924a0.751,0.751,0,0,1-.55.232,0.766,0.766,0,0,1-.562-0.232l-1.1-1.1a0.766,0.766,0,0,1-.232-0.562,0.752,0.752,0,0,1,.232-0.55L7.288,9.5,5.076,7.288a0.752,0.752,0,0,1-.232-0.55,0.766,0.766,0,0,1,.232-0.562l1.1-1.1a0.766,0.766,0,0,1,.562-0.232,0.751,0.751,0,0,1,.55.232L9.5,7.288l2.212-2.212a0.751,0.751,0,0,1,.55-0.232,0.765,0.765,0,0,1,.562.232l1.1,1.1a0.765,0.765,0,0,1,.232.562,0.751,0.751,0,0,1-.232.55L11.712,9.5Z"/>
</svg>
