<svg xmlns="http://www.w3.org/2000/svg" width="22" height="22" viewBox="0 0 22 22">
  <defs>
    <style>
      .cls-1 {
        fill: #c3c3c3;
        fill-rule: evenodd;
      }
    </style>
  </defs>
  <path id="Forma_1" data-name="Forma 1" class="cls-1" d="M11.028,0.377A10.613,10.613,0,1,0,21.642,10.991,10.612,10.612,0,0,0,11.028.377Zm4.563,13.487L13.9,15.552a38.942,38.942,0,0,0-2.874-2.869,39.563,39.563,0,0,0-2.872,2.869L6.464,13.864a33.1,33.1,0,0,0,2.872-2.87A32.669,32.669,0,0,0,6.464,8.12L8.155,6.428s2.7,2.87,2.872,2.87S13.9,6.428,13.9,6.428l1.69,1.692a38.912,38.912,0,0,0-2.873,2.874C12.718,11.185,15.591,13.864,15.591,13.864Z"/>
</svg>
