<svg xmlns="http://www.w3.org/2000/svg" width="29" height="29" viewBox="0 0 29 29">
  <defs>
    <style>
      .cls-1 {
        fill: #fff;
        fill-rule: evenodd;
      }
    </style>
  </defs>
  <path id="Forma_1_copy_2" data-name="Forma 1 copy 2" class="cls-1" d="M9.368,21.343h8.553v1.711H9.368V21.343ZM7.657,2.525H21.342V5.946h1.711V2.525A1.711,1.711,0,0,0,21.342.814H7.657A1.711,1.711,0,0,0,5.946,2.525V5.946H7.657V2.525Zm1.711,15.4H19.632v1.711H9.368V17.921ZM26.475,7.657H2.525A1.711,1.711,0,0,0,.814,9.368V19.632a1.71,1.71,0,0,0,1.711,1.711H5.946v5.132a1.71,1.71,0,0,0,1.711,1.711H21.342a1.71,1.71,0,0,0,1.711-1.711V21.343h3.422a1.71,1.71,0,0,0,1.711-1.711V9.368A1.711,1.711,0,0,0,26.475,7.657ZM21.342,26.475H7.657V16.211H21.342V26.475Zm3.422-13.686a1.711,1.711,0,1,1,1.711-1.711A1.71,1.71,0,0,1,24.764,12.789Z"/>
</svg>
