<svg xmlns="http://www.w3.org/2000/svg" width="23" height="31" viewBox="0 0 23 31">
  <defs>
    <style>
      .cls-1 {
        fill: #282828;
        fill-rule: evenodd;
      }
    </style>
  </defs>
  <path id="Forma_1" data-name="Forma 1" class="cls-1" d="M2.868,28.771a1.478,1.478,0,0,0,1.477,1.417h13.8a1.478,1.478,0,0,0,1.477-1.417L20.6,7.965H1.883Zm11.5-15.638a0.6,0.6,0,0,1,.6-0.6h0.96a0.6,0.6,0,0,1,.6.6V25.02a0.6,0.6,0,0,1-.6.6h-0.96a0.6,0.6,0,0,1-.6-0.6V13.133Zm-4.2,0a0.6,0.6,0,0,1,.6-0.6h0.96a0.6,0.6,0,0,1,.6.6V25.02a0.6,0.6,0,0,1-.6.6h-0.96a0.6,0.6,0,0,1-.6-0.6V13.133h0Zm-4.2,0a0.6,0.6,0,0,1,.6-0.6h0.96a0.6,0.6,0,0,1,.6.6V25.02a0.6,0.6,0,0,1-.6.6H6.562a0.6,0.6,0,0,1-.6-0.6V13.133ZM21.26,2.325H14.9v-1.2a0.31,0.31,0,0,0-.31-0.31H7.9a0.31,0.31,0,0,0-.31.31v1.2H1.227A0.928,0.928,0,0,0,.3,3.253V6.167H22.188V3.253A0.927,0.927,0,0,0,21.26,2.325Z"/>
</svg>
