<svg xmlns="http://www.w3.org/2000/svg" width="31" height="20" viewBox="0 0 31 20">
  <defs>
    <style>
      .cls-1 {
        fill: #1873a7;
        fill-rule: evenodd;
      }
    </style>
  </defs>
  <path id="Forma_1" data-name="Forma 1" class="cls-1" d="M9.38,11.53H21.62V8.47H9.38v3.06ZM3.107,10A6.2,6.2,0,0,1,9.38,3.727h4.59V0.82H9.38a9.18,9.18,0,0,0,0,18.36h4.59V16.273H9.38A6.2,6.2,0,0,1,3.107,10ZM21.62,0.82H17.03V3.727h4.59A6.2,6.2,0,0,1,27.893,10a6.2,6.2,0,0,1-6.273,6.273H17.03V19.18h4.59A9.18,9.18,0,0,0,21.62.82Z"/>
</svg>
