<?xml version="1.0" encoding="utf-8"?>
<!-- Generator: Adobe Illustrator 22.0.0, SVG Export Plug-In . SVG Version: 6.00 Build 0)  -->
<svg version="1.1" id="layer" xmlns="http://www.w3.org/2000/svg" xmlns:xlink="http://www.w3.org/1999/xlink" x="0px" y="0px"
	 viewBox="0 0 110.6 36" style="enable-background:new 0 0 110.6 36;" xml:space="preserve">
<style type="text/css">
	.st0{fill:#FFFFFF;}
</style>
<polygon class="st0" points="26.6,4.3 28.6,11.5 24.5,11.5 26.6,4.3 "/>
<polygon class="st0" points="23,16.5 21.2,22.4 31.7,22.4 30,16.5 "/>
<path class="st0" d="M50.6,0H30.3v6.4h6.4v16H47c-0.6-0.4-5-3.9-5-10.3C42,6.7,45.2,1.4,50.6,0L50.6,0z"/>
<path class="st0" d="M54.1,16.6c2.4,0,4.3-2,4.3-4.5c0-2.5-1.8-4.8-4.2-4.8c-2.4,0-4.3,2.3-4.3,4.8C49.8,14.7,51.6,16.6,54.1,16.6z"
	/>
<polygon class="st0" points="75.3,14.1 71.2,0 60.7,0 60.7,22.4 67.3,22.4 67.3,8.4 67.3,8.4 71.4,22.4 82,22.4 82,0 75.4,0 
	75.4,14.1 75.3,14.1 "/>
<polygon class="st0" points="12.8,22.4 14.7,16.1 7.7,16.1 7.7,14.2 15.3,14.2 17.1,8.2 7.7,8.2 7.7,6.4 17.6,6.4 19.6,0 0.1,0 
	0.1,22.4 12.8,22.4 "/>
<path class="st0" d="M19.4,27.7H21c0.5,0,1.3,0.1,1,1.5c-0.3,1.2-0.8,1.8-1.8,1.8h-1l-0.6,2.9H18L19.4,27.7L19.4,27.7z M19.3,30.5h1
	c0.6,0,1-0.3,1.2-1.2c0.2-1-0.2-1.1-0.7-1.1h-1L19.3,30.5z M22,32.2l0.2-1c0.1-0.5,0.4-1.7,1.8-1.7c1.5,0,1.2,1.1,1.1,1.7l-0.2,1
	c-0.2,1.1-0.8,1.8-1.9,1.8C22,33.9,21.8,33.3,22,32.2 M24.2,33c0.1-0.2,0.3-1,0.4-1.3c0.3-1.3,0.3-1.8-0.6-1.8
	c-0.9,0-1.1,0.5-1.4,1.8c-0.1,0.3-0.2,1-0.2,1.3c0,0.1,0,0.6,0.7,0.6S24.1,33,24.2,33L24.2,33z M26,29.5h0.5l0.2,3.8h0l1.7-3.8h0.6
	l0.2,3.8l1.8-3.8h0.5l-2.1,4.3h-0.6l-0.2-3.7h0l-1.7,3.7h-0.6L26,29.5z M32,31.8l-0.1,0.3c-0.1,0.6-0.1,1.4,0.7,1.4
	c0.6,0,1-0.4,1.2-1h0.5c-0.3,1-0.9,1.4-1.8,1.4c-0.7,0-1.4-0.3-1.2-1.6l0.2-1.1c0.3-1.2,0.9-1.8,1.9-1.8c1.5,0,1.3,1.1,1,2.4
	L32,31.8L32,31.8z M34,31.4c0.2-1,0.2-1.5-0.7-1.5c-0.8,0-1.1,0.6-1.3,1.5H34z M36.3,30.1c0.3-0.4,0.8-0.7,1.3-0.7L37.5,30
	c-0.7-0.1-1.3,0.4-1.4,1.1l-0.6,2.8H35l0.9-4.3h0.5L36.3,30.1L36.3,30.1z M37.3,33.8l0.9-4.3h0.5l-0.9,4.3H37.3z M38.4,28.3l0.1-0.7
	h0.6l-0.1,0.7H38.4z M39.5,33.8H39l0.9-4.3h0.5l-0.1,0.5h0c0.3-0.4,0.7-0.6,1.2-0.6c1.1,0,1,0.8,0.9,1.4l-0.6,3h-0.5l0.6-3
	c0.1-0.5,0-1-0.6-1c-0.5,0-1,0.3-1.2,1.3L39.5,33.8L39.5,33.8z M46.1,29.5h0.5c-0.1,0.4-0.2,0.6-0.2,0.9L45.6,34
	c-0.2,1-0.6,1.5-1.8,1.5c-1.1,0-1.1-0.8-1-1.2h0.5c-0.1,0.5,0.2,0.8,0.6,0.8c1,0,1-0.5,1.3-1.8h0c-0.3,0.4-0.7,0.5-1.2,0.5
	c-1.2,0-1.1-1.1-0.9-2c0.2-1,0.2-1,0.4-1.5c0.1-0.2,0.5-0.9,1.4-0.9c0.4,0,0.8,0.2,0.9,0.6l0,0L46.1,29.5z M43.8,31.6
	c-0.2,0.9-0.4,1.8,0.5,1.8c0.4,0,0.8-0.3,0.9-0.5c0.2-0.3,0.3-0.5,0.5-1.8c0.2-0.9-0.2-1.2-0.7-1.2C44.1,29.9,43.9,31,43.8,31.6
	L43.8,31.6z M48.6,33.8l1.3-6.2h1.7c1,0,1.4,0.4,1.2,1.5c-0.2,0.7-0.4,1.3-1.2,1.5v0c0.8,0.2,0.9,0.7,0.7,1.5
	c-0.2,1.1-0.9,1.7-1.9,1.7H48.6L48.6,33.8z M49.2,33.4h0.9c0.9,0,1.4-0.3,1.6-1.2c0.1-0.5,0.1-1.3-0.8-1.3h-1.1L49.2,33.4L49.2,33.4
	z M50.9,30.4c0.8,0,1.2-0.5,1.3-1.2c0.2-1-0.3-1-0.8-1h-1.1l-0.5,2.3H50.9L50.9,30.4z M56.4,29.5l-0.9,4.3h-0.4l0.1-0.5h0
	c-0.4,0.4-0.7,0.6-1.2,0.6c-0.9,0-1-0.7-0.9-1.3l0.7-3h0.5l-0.6,3c0,0.1-0.2,1,0.5,1c0.7,0,1.1-0.7,1.1-1l0.6-3L56.4,29.5L56.4,29.5
	z M57.7,33.9c-0.9,0-1.2-0.5-1-1.4h0.5c-0.1,0.6-0.1,1,0.6,1c0.5,0,0.8-0.3,0.9-0.8c0.2-1.1-1.8-0.8-1.5-2.3
	c0.2-0.8,0.8-1.1,1.5-1.1c0.9,0,1,0.6,0.9,1.2h-0.5c0.1-0.5,0-0.8-0.6-0.8c-0.4,0-0.7,0.2-0.8,0.6c-0.2,1.1,1.8,0.8,1.5,2.2
	C59,33.5,58.5,33.9,57.7,33.9 M59.9,33.8l0.9-4.3h0.5l-0.9,4.3H59.9z M61,28.3l0.1-0.7h0.6l-0.1,0.7H61z M62.1,33.8h-0.5l0.9-4.3H63
	l-0.1,0.5h0c0.3-0.4,0.7-0.6,1.2-0.6c1.1,0,1,0.8,0.9,1.4l-0.6,3h-0.5l0.6-3c0.1-0.5,0-1-0.6-1c-0.5,0-1,0.3-1.2,1.3L62.1,33.8
	L62.1,33.8z M66.3,31.8l-0.1,0.3c-0.1,0.6-0.1,1.4,0.7,1.4c0.6,0,1-0.4,1.2-1h0.5c-0.3,1-0.9,1.4-1.8,1.4c-0.7,0-1.4-0.3-1.2-1.6
	l0.2-1.1c0.3-1.2,0.9-1.8,1.9-1.8c1.5,0,1.3,1.1,1,2.4L66.3,31.8L66.3,31.8z M68.4,31.4c0.2-1,0.2-1.5-0.7-1.5
	c-0.8,0-1.1,0.6-1.3,1.5H68.4z M70.4,33.9c-0.9,0-1.2-0.5-1-1.4h0.5c-0.1,0.6-0.1,1,0.6,1c0.5,0,0.8-0.3,0.9-0.8
	c0.2-1.1-1.8-0.8-1.5-2.3c0.2-0.8,0.8-1.1,1.5-1.1c0.9,0,1,0.6,0.9,1.2h-0.5c0.1-0.5,0-0.8-0.6-0.8c-0.4,0-0.7,0.2-0.8,0.6
	c-0.2,1.1,1.8,0.8,1.5,2.2C71.7,33.5,71.2,33.9,70.4,33.9 M73.6,33.9c-0.9,0-1.2-0.5-1-1.4h0.5c-0.1,0.6-0.1,1,0.6,1
	c0.5,0,0.8-0.3,0.9-0.8c0.2-1.1-1.8-0.8-1.5-2.3c0.2-0.8,0.8-1.1,1.5-1.1c0.9,0,1,0.6,0.9,1.2h-0.5c0.1-0.5,0-0.8-0.6-0.8
	c-0.4,0-0.7,0.2-0.8,0.6c-0.2,1.1,1.8,0.8,1.5,2.2C75,33.5,74.4,33.9,73.6,33.9 M81.2,27.7h0.7l0.1,5.4h0l2.5-5.4H85l-2.8,6.2h-0.7
	l-0.1-5.5h0l-2.4,5.5h-0.7l-0.2-6.2h0.6l0.1,5.5h0L81.2,27.7z M84.4,32.2l0.2-1c0.1-0.5,0.4-1.7,1.8-1.7s1.2,1.1,1.1,1.7l-0.2,1
	c-0.2,1.1-0.8,1.8-1.9,1.8S84.1,33.3,84.4,32.2 M86.5,33c0.1-0.2,0.3-1,0.4-1.3c0.3-1.3,0.3-1.8-0.6-1.8c-0.9,0-1.1,0.5-1.4,1.8
	c-0.1,0.3-0.2,1-0.2,1.3c0,0.1,0,0.6,0.7,0.6C86.3,33.5,86.5,33,86.5,33L86.5,33z M89.3,30.1c0.3-0.4,0.8-0.7,1.3-0.7L90.6,30
	c-0.7-0.1-1.3,0.4-1.4,1.1l-0.6,2.8H88l0.9-4.3h0.5L89.3,30.1L89.3,30.1z M90.4,33.8l1.3-6.2h0.5l-1.3,6.2H90.4z M94.5,33.3
	L94.5,33.3c-0.4,0.4-0.7,0.6-1.2,0.6c-1.2,0-1-1.2-0.8-2.3c0.2-0.8,0.5-2.2,1.8-2.2c0.4,0,0.7,0.2,0.9,0.5h0l0.5-2.3h0.5L95,33
	c-0.1,0.4-0.1,0.7-0.1,0.9h-0.5L94.5,33.3L94.5,33.3z M94.7,32.1l0.2-0.8c0.1-0.2,0.3-1.5-0.7-1.5c-0.9,0-1.1,0.8-1.3,1.8
	c-0.3,1.6,0,1.8,0.5,1.8C93.9,33.5,94.5,33.1,94.7,32.1L94.7,32.1z M96.4,29.5h0.5l0.2,3.8h0l1.7-3.8h0.6l0.2,3.8l1.8-3.8h0.5
	l-2.1,4.3h-0.6L99,30.2h0l-1.7,3.7h-0.6L96.4,29.5z M101.6,33.8l0.9-4.3h0.5l-0.9,4.3H101.6z M102.7,28.3l0.1-0.7h0.6l-0.1,0.7
	H102.7z M105.7,33.3L105.7,33.3c-0.4,0.4-0.7,0.6-1.2,0.6c-1.2,0-1-1.2-0.8-2.3c0.2-0.8,0.5-2.2,1.8-2.2c0.4,0,0.7,0.2,0.9,0.5h0
	l0.5-2.3h0.5l-1.1,5.3c-0.1,0.4-0.1,0.7-0.1,0.9h-0.5L105.7,33.3L105.7,33.3z M105.9,32.1l0.2-0.8c0.1-0.2,0.3-1.5-0.7-1.5
	c-0.9,0-1.1,0.8-1.3,1.8c-0.3,1.6,0,1.8,0.5,1.8C105.1,33.5,105.7,33.1,105.9,32.1L105.9,32.1z M108,31.8l-0.1,0.3
	c-0.1,0.6-0.1,1.4,0.7,1.4c0.6,0,1-0.4,1.2-1h0.5c-0.3,1-0.9,1.4-1.8,1.4c-0.7,0-1.4-0.3-1.2-1.6l0.2-1.1c0.3-1.2,0.9-1.8,1.9-1.8
	c1.5,0,1.3,1.1,1,2.4L108,31.8L108,31.8z M110,31.4c0.2-1,0.2-1.5-0.7-1.5c-0.8,0-1.1,0.6-1.3,1.5H110z"/>
</svg>
