<svg xmlns="http://www.w3.org/2000/svg" width="34" height="34" viewBox="0 0 34 34">
  <defs>
    <style>
      .cls-1 {
        fill: #525252;
        fill-rule: evenodd;
      }
    </style>
  </defs>
  <path id="Forma_1" data-name="Forma 1" class="cls-1" d="M16.946,30.6H4.7a1.361,1.361,0,0,1-1.361-1.36V4.76A1.361,1.361,0,0,1,4.7,3.4H16.946a1.36,1.36,0,1,0,0-2.72H4.7A4.086,4.086,0,0,0,.616,4.76V29.24A4.086,4.086,0,0,0,4.7,33.32H16.946A1.36,1.36,0,1,0,16.946,30.6ZM32.978,16.031L24.7,7.871a1.36,1.36,0,1,0-1.911,1.937l5.913,5.831H12.863a1.36,1.36,0,1,0,0,2.72H28.707l-5.913,5.832A1.36,1.36,0,0,0,24.7,26.128l8.274-8.16A1.359,1.359,0,0,0,32.978,16.031Z"/>
</svg>
