<svg xmlns="http://www.w3.org/2000/svg" width="37" height="38" viewBox="0 0 37 38">
  <defs>
    <style>
      .cls-1 {
        fill: #fff;
        fill-rule: evenodd;
      }
    </style>
  </defs>
  <path id="Forma_1" data-name="Forma 1" class="cls-1" d="M13.893,13.973H18.44a23.153,23.153,0,0,1,.132,2.4,23.126,23.126,0,0,1-.132,2.4H13.893A22,22,0,0,1,13.893,13.973Zm6.959,0h3.339a8.3,8.3,0,0,1,.392,2.4,8.3,8.3,0,0,1-.392,2.4H20.852c0.074-.793.124-1.6,0.124-2.4S20.926,14.766,20.852,13.973Zm-2.8,7.214c-0.561,2.354-1.43,3.607-1.881,3.607s-1.32-1.253-1.881-3.607h3.762ZM12.681,8.739a15.154,15.154,0,0,0-.839,2.829H9.278A8.454,8.454,0,0,1,12.681,8.739ZM8.142,13.973h3.339c-0.074.793-.124,1.6-0.124,2.4s0.05,1.612.124,2.4H8.142a8.3,8.3,0,0,1-.392-2.4A8.3,8.3,0,0,1,8.142,13.973Zm3.7,7.214a15.168,15.168,0,0,0,.839,2.829,8.453,8.453,0,0,1-3.4-2.829h2.564ZM16.166,0.747A15.611,15.611,0,0,1,28.024,26.535L29.891,28.4l1.7-1.7L35.9,31.013a3.605,3.605,0,0,1,0,5.1h0a3.606,3.606,0,0,1-5.1,0L26.49,31.8l1.7-1.7-1.867-1.867A15.623,15.623,0,1,1,16.166.747Zm0,26.453A10.822,10.822,0,1,0,5.345,16.378,10.833,10.833,0,0,0,16.166,27.2Zm4.324-6.012h2.564a8.452,8.452,0,0,1-3.4,2.829A15.158,15.158,0,0,0,20.491,21.187Zm2.564-9.619H20.491a15.169,15.169,0,0,0-.839-2.829A8.453,8.453,0,0,1,23.055,11.568ZM16.166,7.961c0.451,0,1.32,1.253,1.881,3.607H14.285C14.846,9.214,15.715,7.961,16.166,7.961Z"/>
</svg>
