<?xml version="1.0" encoding="utf-8"?>
<!-- Generator: Adobe Illustrator 21.0.0, SVG Export Plug-In . SVG Version: 6.00 Build 0)  -->
<svg version="1.1" id="图层_1" xmlns="http://www.w3.org/2000/svg" xmlns:xlink="http://www.w3.org/1999/xlink" x="0px" y="0px"
	 viewBox="0 0 8.8 34.7" style="enable-background:new 0 0 8.8 34.7;" xml:space="preserve">
<style type="text/css">
	.st0{fill-rule:evenodd;clip-rule:evenodd;fill:#268DC8;}
</style>
<g>
	<g>
		<path class="st0" d="M4.4,8.8c2.4,0,4.4-2,4.4-4.4C8.8,2,6.8,0,4.4,0C2,0,0,2,0,4.4C0,6.9,2,8.8,4.4,8.8z M4.4,12.9
			c-2.4,0-4.4,2-4.4,4.4s2,4.4,4.4,4.4c2.4,0,4.4-2,4.4-4.4S6.8,12.9,4.4,12.9z M4.4,25.8c-2.4,0-4.4,2-4.4,4.4c0,2.4,2,4.4,4.4,4.4
			c2.4,0,4.4-2,4.4-4.4C8.8,27.8,6.8,25.8,4.4,25.8z"/>
	</g>
</g>
</svg>
