<?xml version="1.0" encoding="utf-8"?>
<!-- Generator: Adobe Illustrator 21.0.0, SVG Export Plug-In . SVG Version: 6.00 Build 0)  -->
<svg version="1.1" id="图层_1" xmlns="http://www.w3.org/2000/svg" xmlns:xlink="http://www.w3.org/1999/xlink" x="0px" y="0px"
	 viewBox="0 0 33 33" style="enable-background:new 0 0 33 33;" xml:space="preserve">
<style type="text/css">
	.st0{fill:#0C6AD2;}
</style>
<path class="st0" d="M32.9,16.1l-0.2-0.4l-4.4-4.4c-0.4-0.4-1.1-0.4-1.6,0c-0.4,0.4-0.4,1.1,0,1.6l2.5,2.5H17.6V3.8l2.5,2.5
	c0.4,0.4,1.1,0.4,1.6,0c0.4-0.4,0.4-1.1,0-1.6l-4.4-4.4l0,0l-0.3-0.2L16.5,0h0l-0.4,0.1l-0.3,0.2l0,0l-4.4,4.4
	c-0.4,0.4-0.4,1.1,0,1.6c0.4,0.4,1.1,0.4,1.6,0l2.5-2.5v11.6H3.8l2.5-2.5c0.4-0.4,0.4-1.1,0-1.6c-0.4-0.4-1.1-0.4-1.6,0l-4.4,4.4
	l0,0l-0.2,0.3L0,16.5v0l0.1,0.4l0.2,0.3l0,0l4.4,4.4c0.4,0.4,1.1,0.4,1.6,0c0.4-0.4,0.4-1.1,0-1.6l-2.5-2.5h11.6v11.6l-2.5-2.5
	c-0.4-0.4-1.1-0.4-1.6,0c-0.4,0.4-0.4,1.1,0,1.6l4.4,4.4l0.4,0.2l0.4,0.1h0l0.4-0.1l0.4-0.2l4.4-4.4c0.4-0.4,0.4-1.1,0-1.6
	c-0.4-0.4-1.1-0.4-1.6,0l-2.5,2.5V17.6h11.6l-2.5,2.5c-0.4,0.4-0.4,1.1,0,1.6c0.4,0.4,1.1,0.4,1.6,0l4.4-4.4l0.2-0.4l0.1-0.4v0
	L32.9,16.1z"/>
</svg>
