<svg xmlns="http://www.w3.org/2000/svg" width="32" height="36" viewBox="0 0 32 36">
  <defs>
    <style>
      .cls-1 {
        fill: #525252;
        fill-rule: evenodd;
      }
    </style>
  </defs>
  <path id="Forma_1" data-name="Forma 1" class="cls-1" d="M30.4,26.008H28.8V13.2a12.8,12.8,0,1,0-25.6,0V26.008H1.6a1.6,1.6,0,0,0,0,3.2h8a6.4,6.4,0,1,0,12.8,0h8A1.6,1.6,0,0,0,30.4,26.008ZM16,32.414a3.2,3.2,0,0,1-3.2-3.2h6.4A3.2,3.2,0,0,1,16,32.414Zm9.6-6.406H6.4V13.2a9.6,9.6,0,1,1,19.2,0V26.008Z"/>
</svg>
