<svg xmlns="http://www.w3.org/2000/svg" width="29" height="25" viewBox="0 0 29 25">
  <defs>
    <style>
      .cls-1 {
        fill: #1873a7;
        fill-rule: evenodd;
      }
    </style>
  </defs>
  <path id="Forma_1" data-name="Forma 1" class="cls-1" d="M28.289,1.61A2.327,2.327,0,0,0,26.583.9H2.417A2.328,2.328,0,0,0,.71,1.61,2.326,2.326,0,0,0,0,3.317V21.683A2.327,2.327,0,0,0,.71,23.39a2.327,2.327,0,0,0,1.707.71H26.583A2.423,2.423,0,0,0,29,21.683V3.317A2.327,2.327,0,0,0,28.289,1.61ZM27.066,21.683a0.489,0.489,0,0,1-.483.483H2.417a0.49,0.49,0,0,1-.483-0.483V3.317a0.49,0.49,0,0,1,.483-0.483H26.583a0.49,0.49,0,0,1,.483.483V21.683h0ZM6.767,10.567a2.887,2.887,0,0,0,2.9-2.9,2.887,2.887,0,0,0-2.9-2.9,2.887,2.887,0,0,0-2.9,2.9A2.887,2.887,0,0,0,6.767,10.567Zm4.35,4.35L8.7,12.5,3.867,17.333v2.9H25.133V13.467L18.85,7.184Z"/>
</svg>
