<svg xmlns="http://www.w3.org/2000/svg" width="25" height="25" viewBox="0 0 25 25">
  <defs>
    <style>
      .cls-1 {
        fill: #268dc8;
        fill-rule: evenodd;
      }
    </style>
  </defs>
  <path id="Forma_1_copy" data-name="Forma 1 copy" class="cls-1" d="M7.834,18.721H15.61v1.555H7.834V18.721ZM6.279,1.614H18.721v3.11h1.555V1.614A1.555,1.555,0,0,0,18.721.058H6.279A1.556,1.556,0,0,0,4.724,1.614v3.11H6.279V1.614Zm1.555,14h9.331v1.555H7.834V15.61ZM23.386,6.279H1.614A1.556,1.556,0,0,0,.058,7.834v9.331a1.555,1.555,0,0,0,1.555,1.555H4.724v4.666a1.555,1.555,0,0,0,1.555,1.555H18.721a1.554,1.554,0,0,0,1.555-1.555V18.721h3.111a1.554,1.554,0,0,0,1.555-1.555V7.834A1.555,1.555,0,0,0,23.386,6.279ZM18.721,23.386H6.279V14.055H18.721v9.331Zm3.111-12.442A1.555,1.555,0,1,1,23.386,9.39,1.554,1.554,0,0,1,21.831,10.945Z"/>
</svg>
