<?xml version="1.0" encoding="utf-8"?>
<!-- Generator: Adobe Illustrator 21.0.0, SVG Export Plug-In . SVG Version: 6.00 Build 0)  -->
<svg version="1.1" id="图层_1" xmlns="http://www.w3.org/2000/svg" xmlns:xlink="http://www.w3.org/1999/xlink" x="0px" y="0px"
	 viewBox="0 0 36.9 36.9" style="enable-background:new 0 0 36.9 36.9;" xml:space="preserve">
<style type="text/css">
	.st0{fill:#F74545;}
</style>
<path class="st0" d="M18.5,0C8.3,0,0,8.3,0,18.5c0,10.2,8.3,18.5,18.5,18.5c10.2,0,18.5-8.3,18.5-18.5C36.9,8.3,28.7,0,18.5,0z
	 M26.4,23.5l-2.9,2.9c0,0-4.7-5-5-5c-0.3,0-5,5-5,5l-2.9-2.9c0,0,5-4.6,5-5c0-0.4-5-5-5-5l2.9-2.9c0,0,4.7,5,5,5c0.3,0,5-5,5-5
	l2.9,2.9c0,0-5,4.7-5,5C21.4,18.8,26.4,23.5,26.4,23.5z"/>
</svg>
