<svg xmlns="http://www.w3.org/2000/svg" width="26" height="19" viewBox="0 0 26 19">
  <defs>
    <style>
      .cls-1 {
        fill: #fff;
        fill-rule: evenodd;
      }
    </style>
  </defs>
  <path id="Forma_1" data-name="Forma 1" class="cls-1" d="M22.472,0.063H3.528A2.9,2.9,0,0,0,.58,2.9V16.1a2.9,2.9,0,0,0,2.948,2.832H22.472A2.9,2.9,0,0,0,25.42,16.1V2.9A2.9,2.9,0,0,0,22.472.063Zm0,16.373H3.528A0.415,0.415,0,0,1,3.08,16.1V4.642l8.567,7.236a0.977,0.977,0,0,0,.629.23h1.447a0.977,0.977,0,0,0,.629-0.23L22.92,4.642V16.1A0.415,0.415,0,0,1,22.472,16.436ZM13,9.625L4.667,2.564H21.333Z"/>
</svg>
