<?xml version="1.0" encoding="utf-8"?>
<!-- Generator: Adobe Illustrator 22.0.0, SVG Export Plug-In . SVG Version: 6.00 Build 0)  -->
<svg version="1.1" id="Layer_1" xmlns="http://www.w3.org/2000/svg" xmlns:xlink="http://www.w3.org/1999/xlink" x="0px" y="0px"
	 viewBox="0 0 18 18" style="enable-background:new 0 0 18 18;" xml:space="preserve">
<style type="text/css">
	.st0{fill:#FFFFFF;}
</style>
<path id="Forma_1" class="st0" d="M2.4,14.1c-3.2-3.2-3.2-8.5,0-11.7s8.5-3.2,11.7,0c2.7,2.6,3.2,6.8,1.2,10c-0.1,0.1-0.1,0.3,0,0.4
	l1.9,1.9c0.8,0.8,1,2,0.3,2.8l-0.1,0.1c-0.7,0.7-1.9,0.5-2.8-0.3l-1.9-1.9c-0.1-0.1-0.3-0.1-0.4-0.1C9.2,17.3,5,16.8,2.4,14.1z
	 M12.6,12.6c2.4-2.4,2.4-6.2,0-8.6s-6.2-2.4-8.6,0s-2.4,6.2,0,8.6c0,0,0,0,0,0C6.3,14.9,10.2,14.9,12.6,12.6L12.6,12.6z M8.2,4.2
	c1.7,0,3.1,1.4,3.1,3.1c0,2.3-2.6,5-3.1,5c-0.4,0-3.1-2.6-3.1-5C5.1,5.6,6.5,4.2,8.2,4.2z M8.2,9.2c1,0,1.8-0.8,1.8-1.8
	c0-1-0.8-1.8-1.8-1.8c-1,0-1.8,0.8-1.8,1.8C6.4,8.4,7.2,9.2,8.2,9.2z"/>
</svg>
