<svg xmlns="http://www.w3.org/2000/svg" width="24" height="24" viewBox="0 0 24 24">
  <defs>
    <style>
      .cls-1 {
        fill: #656565;
        fill-rule: evenodd;
      }
    </style>
  </defs>
  <path id="Forma_1" data-name="Forma 1" class="cls-1" d="M12,0A12,12,0,1,0,24,12,12.014,12.014,0,0,0,12,0Zm0,21.447A9.447,9.447,0,1,1,21.447,12,9.458,9.458,0,0,1,12,21.447Zm6.254-9.817H12.861V5.145a0.988,0.988,0,0,0-1.976,0v7.472a0.988,0.988,0,0,0,.988.988h6.381A0.988,0.988,0,1,0,18.254,11.629Z"/>
</svg>
