<svg xmlns="http://www.w3.org/2000/svg" width="29" height="29" viewBox="0 0 29 29">
  <defs>
    <style>
      .cls-1 {
        fill: #fff;
        fill-rule: evenodd;
      }
    </style>
  </defs>
  <path id="_5" data-name="5" class="cls-1" d="M28.646,13.159a0.917,0.917,0,0,0-.906-0.695,3.116,3.116,0,0,1-2.13-5.422A0.784,0.784,0,0,0,25.7,5.979a13.956,13.956,0,0,0-2.233-2.257,0.783,0.783,0,0,0-1.071.087,3.246,3.246,0,0,1-3.515.79,3.134,3.134,0,0,1-1.9-3.063A0.782,0.782,0,0,0,16.282.712,14.042,14.042,0,0,0,13.112.7a0.785,0.785,0,0,0-.7.807,3.139,3.139,0,0,1-1.929,3.01A3.254,3.254,0,0,1,7,3.726a0.785,0.785,0,0,0-1.063-.09,14,14,0,0,0-2.28,2.256,0.786,0.786,0,0,0,.084,1.072,3.128,3.128,0,0,1,.788,3.52,3.257,3.257,0,0,1-3.066,1.907,0.766,0.766,0,0,0-.814.693,14.138,14.138,0,0,0-.006,3.208,0.932,0.932,0,0,0,.924.694,3.091,3.091,0,0,1,2.9,1.933,3.14,3.14,0,0,1-.788,3.489,0.784,0.784,0,0,0-.085,1.063,14,14,0,0,0,2.229,2.258,0.783,0.783,0,0,0,1.073-.085,3.241,3.241,0,0,1,3.513-.791,3.129,3.129,0,0,1,1.907,3.062,0.783,0.783,0,0,0,.692.824,14.014,14.014,0,0,0,3.171.009,0.785,0.785,0,0,0,.7-0.808A3.136,3.136,0,0,1,18.8,24.931a3.25,3.25,0,0,1,3.49.795,0.787,0.787,0,0,0,1.064.089,14.044,14.044,0,0,0,2.28-2.256,0.784,0.784,0,0,0-.084-1.072,3.116,3.116,0,0,1,2.093-5.432l0.174,0a0.784,0.784,0,0,0,.825-0.691A14.12,14.12,0,0,0,28.646,13.159Zm-13.982,6.3a4.706,4.706,0,1,1,4.7-4.705A4.708,4.708,0,0,1,14.665,19.461Z"/>
</svg>
